<svg xmlns="http://www.w3.org/2000/svg"
 xmlns:xlink="http://www.w3.org/1999/xlink"
 width="20px" height="12px"  viewBox="0 0 20 12">
<path fill-rule="evenodd"  fill="#474747"
 d="M18.298523,6.499939 C18.298523,6.499939 18.298462,6.499878 18.298462,6.499878 C18.298462,6.499878 18.298523,6.499756 18.298523,6.499756 C18.298523,6.499756 13.798767,2.0 13.798767,2.0 C13.798767,2.0 9.297791,2.0 9.297791,2.0 C9.297791,2.0 13.797668,6.499878 13.797668,6.499878 C13.797668,6.499878 9.297791,10.999817 9.297791,10.999817 C9.297791,10.999817 13.798767,10.999817 13.798767,10.999817 C13.798767,10.999817 18.298523,6.499939 18.298523,6.499939 ZM11.000549,6.499878 C11.000549,6.499878 11.00061,6.499756 11.00061,6.499756 C11.00061,6.499756 6.5008545,2.0 6.5008545,2.0 C6.5008545,2.0 1.999939,2.0 1.999939,2.0 C1.999939,2.0 6.499756,6.499878 6.499756,6.499878 C6.499756,6.499878 1.999939,10.999817 1.999939,10.999817 C1.999939,10.999817 6.5008545,10.999817 6.5008545,10.999817 C6.5008545,10.999817 11.00061,6.499939 11.00061,6.499939 C11.00061,6.499939 11.000549,6.499878 11.000549,6.499878 Z"/>
</svg>